<svg width="70" height="70" viewBox="0 0 70 70" fill="none" xmlns="http://www.w3.org/2000/svg">
<mask id="mask0" mask-type="alpha" maskUnits="userSpaceOnUse" x="0" y="0" width="70" height="70">
<circle cx="35" cy="35" r="35" fill="#C4C4C4"/>
</mask>
<g mask="url(#mask0)">
<path d="M19.808 27.2L14.24 44H10.928L6.776 31.568L2.552 44H-0.784L-6.352 27.2H-3.112L1.064 39.968L5.408 27.2H8.288L12.536 40.04L16.832 27.2H19.808ZM47.2533 27.2L41.6853 44H38.3733L34.2213 31.568L29.9973 44H26.6613L21.0933 27.2H24.3333L28.5093 39.968L32.8533 27.2H35.7333L39.9813 40.04L44.2773 27.2H47.2533ZM74.6986 27.2L69.1306 44H65.8186L61.6666 31.568L57.4426 44H54.1066L48.5386 27.2H51.7786L55.9546 39.968L60.2986 27.2H63.1786L67.4266 40.04L71.7226 27.2H74.6986Z" fill="#EC3223"/>
</g>
<circle cx="35" cy="35" r="32.5" stroke="#1517C9" stroke-width="5"/>
<line y1="-2.5" x2="62.0666" y2="-2.5" transform="matrix(0.707107 0.707107 -0.705693 0.708518 11.9781 15.0219)" stroke="#1517C9" stroke-width="5"/>
</svg>
